<svg width="246" height="246" viewBox="0 0 246 246" fill="none" xmlns="http://www.w3.org/2000/svg">
<path d="M94.4813 91.4063C93.4653 97.592 92.932 103.847 92.8861 110.116C73.5521 105.59 63.0778 92.1654 57.6101 81.2972C61.6018 81.4255 65.5417 80.3653 68.9299 78.2511L69.4969 77.9051C72.4075 76.1101 74.8094 73.599 76.4733 70.6116C79.7508 79.5004 86.152 86.8922 94.4813 91.4063Z" fill="#FF4A73"/>
<path d="M76.4541 50.7106C64.0868 28.4264 67.0273 12.5133 67.0273 12.5133C51.4697 26.1202 53.8721 37.9397 54.3525 39.7463L42.3697 5.46965C15.7229 54.8042 35.6815 73.0524 50.0379 79.5579C52.42 80.6391 54.995 81.2305 57.6101 81.2972C61.6018 81.4255 65.5417 80.3653 68.93 78.2511L69.4969 77.9051C72.4075 76.1101 74.8094 73.599 76.4733 70.6116C78.1651 67.5673 79.0513 64.1414 79.0479 60.6586C79.0445 57.1758 78.1517 53.7516 76.4541 50.7106Z" fill="#FF4A73"/>
<path d="M151.58 91.4159V91.4063C151.35 89.9553 151.08 88.5139 150.792 87.0725C145.949 63.1932 135.34 46.6266 123.031 46.6266C110.721 46.6266 100.112 63.1932 95.2692 87.0725C94.981 88.5139 94.7119 89.9553 94.4813 91.4063C93.4653 97.592 92.932 103.847 92.8861 110.116C92.835 116.027 93.1882 121.934 93.9432 127.797L99.113 168.387C99.4301 168.358 99.7568 168.349 100.084 168.349H145.978C146.305 168.349 146.631 168.358 146.948 168.387L152.118 127.797C152.873 121.934 153.226 116.027 153.175 110.116C153.129 103.851 152.596 97.5984 151.58 91.4159Z" fill="#FF4A73"/>
<path d="M188.451 81.2953C182.984 92.1635 172.509 105.588 153.175 110.114C153.129 103.849 152.596 97.5964 151.58 91.414V91.4044C159.909 86.8903 166.311 79.4985 169.588 70.6097C171.252 73.5971 173.654 76.1082 176.565 77.9032L177.132 78.2491C180.52 80.3634 184.46 81.4236 188.451 81.2953Z" fill="#FF4A73"/>
<path d="M203.692 5.46965L191.707 39.7463C192.188 37.9397 194.59 26.1202 179.032 12.5133C179.032 12.5133 181.973 28.4264 169.605 50.7106C167.908 53.7516 167.015 57.1758 167.012 60.6586C167.008 64.1414 167.895 67.5673 169.586 70.6116C171.25 73.599 173.652 76.1101 176.563 77.9051L177.13 78.2511C180.518 80.3653 184.458 81.4255 188.449 81.2972C191.065 81.2305 193.64 80.6391 196.022 79.5579C210.38 73.0524 230.337 54.8042 203.692 5.46965Z" fill="#FF4A73"/>
<path d="M146.949 168.387C146.631 168.358 146.305 168.349 145.978 168.349H100.084C99.7569 168.349 99.4302 168.358 99.113 168.387C95.8076 168.637 92.7278 170.158 90.5205 172.631C88.3131 175.105 87.1501 178.337 87.2758 181.649C87.4014 184.962 88.8059 188.097 91.1942 190.395C93.5825 192.694 96.7687 193.978 100.084 193.977H145.978C149.293 193.978 152.479 192.694 154.867 190.395C157.256 188.097 158.66 184.962 158.786 181.649C158.911 178.337 157.748 175.105 155.541 172.631C153.334 170.158 150.254 168.637 146.949 168.387Z" fill="#FF4A73"/>
<path d="M145.978 193.977H100.084C98.4014 193.977 96.7358 194.308 95.1817 194.952C93.6276 195.596 92.2155 196.539 91.026 197.729C89.8366 198.918 88.8931 200.33 88.2493 201.884C87.6056 203.438 87.2743 205.104 87.2743 206.786C87.2743 208.468 87.6056 210.134 88.2493 211.688C88.8931 213.242 89.8366 214.654 91.026 215.844C92.2155 217.033 93.6276 217.977 95.1817 218.62C96.7358 219.264 98.4014 219.595 100.084 219.595H145.978C147.66 219.595 149.326 219.264 150.88 218.62C152.434 217.977 153.846 217.033 155.036 215.844C156.225 214.654 157.168 213.242 157.812 211.688C158.456 210.134 158.787 208.468 158.787 206.786C158.787 205.104 158.456 203.438 157.812 201.884C157.168 200.33 156.225 198.918 155.036 197.729C153.846 196.539 152.434 195.596 150.88 194.952C149.326 194.308 147.66 193.977 145.978 193.977Z" fill="#FF4A73"/>
<path d="M150.408 233.539C147.135 228.184 142.927 223.461 137.983 219.595H108.079C103.135 223.461 98.9264 228.184 95.6536 233.539C95.2227 234.269 94.9929 235.101 94.9876 235.949C94.9822 236.797 95.2016 237.632 95.6233 238.368C96.0449 239.104 96.654 239.715 97.3884 240.14C98.1229 240.564 98.9566 240.786 99.8049 240.784H146.255C147.103 240.787 147.937 240.565 148.672 240.14C149.407 239.716 150.016 239.105 150.438 238.369C150.86 237.633 151.079 236.798 151.074 235.95C151.069 235.101 150.839 234.269 150.408 233.539Z" fill="#EA2A6A"/>
<path d="M65.4399 79.9711C62.945 80.9352 60.2814 81.3862 57.6082 81.2972C54.9932 81.2305 52.4181 80.6391 50.036 79.5579C35.6796 73.0524 15.721 54.8042 42.3678 5.46965L48.5946 23.2854C35.2664 59.3782 51.9771 73.9076 64.4501 79.5579C64.7788 79.7021 65.1055 79.8462 65.4399 79.9711Z" fill="#F973A3"/>
<path d="M146.958 168.349L146.948 168.387C146.631 168.358 146.305 168.349 145.978 168.349H146.958Z" fill="#FF4A73"/>
<path d="M195.034 79.9711C192.933 80.7903 190.706 81.239 188.451 81.2972C184.46 81.4255 180.52 80.3653 177.132 78.251L176.565 77.9051C173.654 76.1101 171.252 73.599 169.588 70.6116C167.896 67.5673 167.01 64.1414 167.014 60.6586C167.017 57.1758 167.91 53.7516 169.607 50.7106C181.975 28.4264 179.034 12.5133 179.034 12.5133C187.548 19.9606 190.69 26.8793 191.699 31.905C189.938 38.4705 187.359 44.7885 184.021 50.7106C182.324 53.7516 181.431 57.1758 181.428 60.6586C181.424 64.1414 182.31 67.5673 184.002 70.6116C185.666 73.599 188.068 76.1101 190.979 77.9051L191.546 78.251C192.649 78.9368 193.818 79.5129 195.034 79.9711Z" fill="#F973A3"/>
<path d="M110.068 233.539C109.637 234.269 109.407 235.101 109.402 235.949C109.396 236.797 109.616 237.632 110.037 238.368C110.459 239.104 111.068 239.715 111.803 240.14C112.537 240.564 113.371 240.786 114.219 240.784H99.8049C98.9566 240.786 98.1229 240.564 97.3884 240.14C96.654 239.715 96.0449 239.104 95.6233 238.368C95.2016 237.632 94.9822 236.797 94.9876 235.949C94.9929 235.101 95.2227 234.269 95.6536 233.539C98.9264 228.184 103.135 223.461 108.079 219.595H122.493C117.549 223.461 113.34 228.184 110.068 233.539Z" fill="#EA2A6A"/>
<path d="M114.498 168.349C114.171 168.349 113.844 168.358 113.527 168.387L113.517 168.349H114.498Z" fill="#FF4A73"/>
<path d="M146.958 168.349L146.948 168.387C146.631 168.358 146.305 168.349 145.978 168.349H146.958Z" fill="#F973A3"/>
<path d="M110.068 233.539C109.637 234.269 109.407 235.101 109.402 235.949C109.396 236.797 109.616 237.632 110.037 238.368C110.459 239.104 111.068 239.715 111.803 240.14C112.537 240.564 113.371 240.786 114.219 240.784H99.8049C98.9566 240.786 98.1229 240.564 97.3884 240.14C96.654 239.715 96.0449 239.104 95.6233 238.368C95.2016 237.632 94.9822 236.797 94.9876 235.949C94.9929 235.101 95.2227 234.269 95.6536 233.539C98.9264 228.184 103.135 223.461 108.079 219.595H122.493C117.549 223.461 113.34 228.184 110.068 233.539Z" fill="#FF4A73"/>
<path d="M99.1034 168.349H100.084C99.7568 168.349 99.4301 168.358 99.113 168.387L99.1034 168.349Z" fill="#EA2A6A"/>
<path d="M153.173 110.116C153.225 116.027 152.871 121.934 152.116 127.797L146.947 168.387C146.629 168.358 146.303 168.349 145.976 168.349H132.542L137.702 127.797C138.457 121.934 138.81 116.027 138.759 110.116C138.713 103.851 138.18 97.5984 137.164 91.4159V91.4063C136.934 89.9553 136.665 88.5139 136.376 87.0725C132.513 68.0075 124.97 53.6126 115.822 48.5677C118.02 47.3192 120.501 46.6511 123.029 46.6266C135.338 46.6266 145.947 63.1932 150.79 87.0725C151.079 88.5139 151.348 89.9553 151.578 91.4063V91.4159C152.594 97.5984 153.128 103.851 153.173 110.116Z" fill="#EA2A6A"/>
<path d="M158.797 181.158C158.794 184.557 157.443 187.816 155.039 190.219C152.636 192.623 149.377 193.974 145.978 193.977H131.564C134.879 193.978 138.065 192.694 140.453 190.395C142.842 188.097 144.246 184.962 144.372 181.649C144.497 178.337 143.334 175.105 141.127 172.631C138.92 170.158 135.84 168.637 132.534 168.387C132.217 168.358 131.891 168.349 131.564 168.349H145.978C146.305 168.349 146.631 168.358 146.948 168.387C150.17 168.629 153.181 170.079 155.379 172.447C157.576 174.816 158.797 177.927 158.797 181.158Z" fill="#EA2A6A"/>
<path d="M158.797 206.786C158.796 208.469 158.465 210.135 157.82 211.69C157.176 213.244 156.231 214.657 155.041 215.846C153.85 217.036 152.437 217.979 150.882 218.622C149.327 219.266 147.661 219.596 145.978 219.595H131.564C134.961 219.595 138.219 218.246 140.621 215.844C143.024 213.441 144.373 210.183 144.373 206.786C144.373 203.389 143.024 200.131 140.621 197.729C138.219 195.326 134.961 193.977 131.564 193.977H145.978C147.661 193.976 149.327 194.307 150.882 194.95C152.437 195.594 153.85 196.537 155.04 197.727C156.231 198.916 157.175 200.328 157.82 201.883C158.464 203.437 158.796 205.103 158.797 206.786Z" fill="#EA2A6A"/>
<path d="M132.544 168.349L132.534 168.387C132.217 168.358 131.891 168.349 131.564 168.349H132.544Z" fill="#EA2A6A"/>
<path d="M100.084 168.349C99.7568 168.349 99.4301 168.358 99.113 168.387L99.1034 168.349H100.084Z" fill="#EA2A6A"/>
<path d="M123.031 46.6266C125.559 46.6511 128.039 47.3192 130.238 48.5677C121.09 53.6126 113.546 68.0075 109.683 87.0725C109.395 88.5139 109.126 89.9553 108.895 91.4063C107.879 97.592 107.346 103.847 107.3 110.116C107.249 116.027 107.602 121.934 108.357 127.797L113.517 168.349H100.084C99.7568 168.349 99.4301 168.358 99.113 168.387L93.9432 127.797C93.1882 121.934 92.835 116.027 92.8861 110.116C92.932 103.847 93.4653 97.592 94.4813 91.4063C94.7119 89.9553 94.981 88.5139 95.2693 87.0725C100.112 63.1932 110.721 46.6266 123.031 46.6266Z" fill="#F973A3"/>
<path d="M114.498 193.977H100.084C96.7687 193.978 93.5825 192.694 91.1942 190.395C88.8059 188.097 87.4014 184.962 87.2758 181.649C87.1501 178.337 88.3131 175.105 90.5205 172.631C92.7278 170.158 95.8076 168.637 99.113 168.387C99.4301 168.358 99.7569 168.349 100.084 168.349H114.498C114.171 168.349 113.844 168.358 113.527 168.387C110.222 168.637 107.142 170.158 104.935 172.631C102.727 175.105 101.564 178.337 101.69 181.649C101.815 184.962 103.22 188.097 105.608 190.395C107.997 192.694 111.183 193.978 114.498 193.977Z" fill="#F973A3"/>
<path d="M114.498 219.595H100.084C98.4014 219.595 96.7358 219.264 95.1817 218.62C93.6276 217.977 92.2155 217.033 91.026 215.844C89.8366 214.654 88.8931 213.242 88.2493 211.688C87.6056 210.134 87.2743 208.468 87.2743 206.786C87.2743 205.104 87.6056 203.438 88.2493 201.884C88.8931 200.33 89.8366 198.918 91.026 197.729C92.2155 196.539 93.6276 195.596 95.1817 194.952C96.7358 194.308 98.4014 193.977 100.084 193.977H114.498C112.816 193.977 111.15 194.308 109.596 194.952C108.042 195.596 106.63 196.539 105.44 197.729C104.251 198.918 103.307 200.33 102.663 201.884C102.02 203.438 101.688 205.104 101.688 206.786C101.688 208.468 102.02 210.134 102.663 211.688C103.307 213.242 104.251 214.654 105.44 215.844C106.63 217.033 108.042 217.977 109.596 218.62C111.15 219.264 112.816 219.595 114.498 219.595Z" fill="#F973A3"/>
<path d="M190.868 84.9651C201.708 83.6121 240.847 66.1721 207.073 3.64292C206.72 2.98596 206.183 2.44611 205.527 2.0892C204.872 1.7323 204.127 1.57378 203.384 1.63297C202.64 1.69216 201.93 1.96651 201.339 2.42255C200.749 2.87859 200.304 3.49661 200.059 4.20122L193.087 24.1426C190.276 18.5643 186.352 13.6216 181.556 9.61995C180.955 9.10057 180.208 8.77966 179.418 8.7012C178.627 8.62274 177.832 8.79055 177.141 9.18165C176.449 9.57275 175.896 10.168 175.556 10.8859C175.216 11.6038 175.107 12.4092 175.242 13.1918C175.268 13.3407 177.685 28.2179 166.236 48.8425C164.37 52.1709 163.319 55.8939 163.169 59.7068C163.018 63.5196 163.773 67.3139 165.372 70.7788C162.995 76.4283 159.173 81.3523 154.289 85.0555C152.683 77.0052 150.043 69.1961 146.436 61.8219C148.792 60.7149 152.495 58.1704 155.448 52.4576C160.781 42.1352 161.423 25.9991 157.356 4.50007C157.281 3.98738 157.103 3.49523 156.832 3.0532C156.562 2.61116 156.205 2.22838 155.783 1.92785C155.361 1.62733 154.882 1.41527 154.376 1.30442C153.87 1.19357 153.346 1.18623 152.837 1.28283C152.328 1.37943 151.844 1.57797 151.413 1.86653C150.983 2.15509 150.615 2.52771 150.332 2.96198C150.05 3.39625 149.858 3.88321 149.768 4.39358C149.678 4.90395 149.692 5.4272 149.81 5.93187C158.23 50.4415 142.736 55.0684 142.578 55.1098L142.688 55.0867L142.791 55.6018C131.229 38.6287 115.026 38.3539 103.278 55.6018L103.381 55.0848L103.49 55.1078C103.332 55.0665 87.8393 50.4396 96.2581 5.92995C96.3519 5.43395 96.3471 4.92433 96.244 4.43018C96.1408 3.93603 95.9414 3.46704 95.657 3.04997C95.3726 2.6329 95.0089 2.27593 94.5866 1.99944C94.1642 1.72295 93.6916 1.53235 93.1956 1.43853C92.6996 1.3447 92.1899 1.34949 91.6958 1.45262C91.2016 1.55575 90.7327 1.7552 90.3156 2.03958C89.8985 2.32396 89.5415 2.6877 89.265 3.11004C88.9886 3.53237 88.798 4.00504 88.7041 4.50103C84.6384 26.0001 85.2794 42.1362 90.6126 52.4585C93.5655 58.1752 97.2699 60.7168 99.6252 61.8229C96.0177 69.1977 93.3773 77.0074 91.7695 85.0583C86.8851 81.3554 83.0621 76.4314 80.6851 70.7817C82.2827 67.3164 83.0368 63.5219 82.8857 59.7091C82.7345 55.8962 81.6824 52.1734 79.8155 48.8454C68.3678 28.2179 70.7826 13.3407 70.8076 13.211C70.9525 12.4261 70.8495 11.6155 70.5128 10.8918C70.1762 10.1681 69.6225 9.56717 68.9288 9.1724C68.2351 8.77764 67.4357 8.60862 66.6416 8.68882C65.8474 8.76902 65.0979 9.09445 64.4972 9.61995C59.701 13.6216 55.7764 18.5643 52.9659 24.1426L45.9972 4.20122C45.7513 3.49793 45.3062 2.88127 44.7162 2.42627C44.1263 1.97127 43.4168 1.69755 42.6741 1.63839C41.9314 1.57924 41.1875 1.73722 40.5329 2.0931C39.8783 2.44897 39.3413 2.98742 38.9872 3.64292C14.3766 49.2067 26.9062 73.2955 48.4476 83.0567C50.5865 84.0312 52.861 84.675 55.1934 84.9661C60.8783 95.4326 71.1603 107.886 89.0654 113.079C89.0933 115.068 89.15 117.067 89.2692 119.079H74.613C69.6844 119.075 64.959 117.115 61.4737 113.63C57.9884 110.146 56.028 105.421 56.0227 100.492C56.0227 99.4725 55.6177 98.4949 54.8968 97.774C54.176 97.0532 53.1983 96.6482 52.1789 96.6482C51.1595 96.6482 50.1818 97.0532 49.461 97.774C48.7401 98.4949 48.3352 99.4725 48.3352 100.492C48.343 107.459 51.1142 114.138 56.0406 119.063C60.967 123.989 67.6463 126.76 74.613 126.767H89.962C90.2974 129.65 89.3201 121.923 92.6104 147.756H74.613C69.6844 147.751 64.959 145.791 61.4737 142.307C57.9884 138.822 56.028 134.097 56.0227 129.168C56.0227 128.149 55.6177 127.171 54.8968 126.45C54.176 125.729 53.1983 125.325 52.1789 125.325C51.1595 125.325 50.1818 125.729 49.461 126.45C48.7401 127.171 48.3352 128.149 48.3352 129.168C48.343 136.134 51.1137 142.813 56.0393 147.738C60.9649 152.664 67.6432 155.435 74.6091 155.443H93.0591C93.2344 155.438 93.409 155.42 93.5819 155.39L94.8513 165.357C92.0277 166.287 89.505 167.957 87.5455 170.193C85.586 172.428 84.2614 175.148 83.7095 178.069C83.1576 180.99 83.3985 184.006 84.4072 186.802C85.4159 189.599 87.1555 192.074 89.445 193.97C78.0185 203.483 83.86 221.939 98.4605 223.356C96.1653 225.892 94.1193 228.643 92.3509 231.571C91.5722 232.885 91.1555 234.382 91.143 235.909C91.1306 237.436 91.523 238.94 92.2802 240.267C93.0374 241.593 94.1325 242.696 95.454 243.462C96.7756 244.228 98.2764 244.63 99.8039 244.628H146.255C147.782 244.63 149.283 244.228 150.605 243.462C151.926 242.696 153.021 241.593 153.778 240.267C154.536 238.94 154.928 237.436 154.916 235.909C154.903 234.382 154.486 232.885 153.708 231.571C151.94 228.646 149.896 225.899 147.604 223.365C162.298 221.954 167.976 203.425 156.614 193.984C158.505 192.427 160.027 190.469 161.069 188.251C162.111 186.034 162.648 183.613 162.641 181.163C162.626 177.665 161.514 174.261 159.463 171.428C157.412 168.595 154.524 166.477 151.205 165.372L152.476 155.395C152.649 155.425 152.823 155.443 152.999 155.448H171.449C178.415 155.44 185.093 152.669 190.019 147.743C194.944 142.818 197.715 136.139 197.723 129.173C197.723 128.154 197.318 127.176 196.598 126.455C195.877 125.734 194.899 125.329 193.88 125.329C192.86 125.329 191.883 125.734 191.162 126.455C190.441 127.176 190.036 128.154 190.036 129.173C190.03 134.101 188.07 138.826 184.586 142.31C181.101 145.795 176.377 147.755 171.449 147.76H153.45L155.93 128.288C155.995 127.783 156.04 127.277 156.099 126.772H171.448C178.414 126.764 185.092 123.993 190.018 119.067C194.943 114.141 197.714 107.463 197.722 100.497C197.722 99.4773 197.318 98.4997 196.597 97.7788C195.876 97.058 194.898 96.653 193.879 96.653C192.859 96.653 191.882 97.058 191.161 97.7788C190.44 98.4997 190.035 99.4773 190.035 100.497C190.029 105.425 188.069 110.149 184.585 113.634C181.1 117.118 176.376 119.079 171.448 119.084H156.791C156.911 117.071 156.967 115.073 156.995 113.084C174.901 107.886 185.183 95.4317 190.868 84.9651ZM34.8119 58.4433C31.1007 47.4309 33.4252 32.9342 41.7172 15.2693L50.7192 41.0224C51.0456 41.963 51.7243 42.7402 52.6122 43.1905C53.5002 43.6407 54.5282 43.7289 55.4799 43.4364C56.4315 43.1438 57.2326 42.4935 57.7143 41.6222C58.1961 40.7509 58.321 39.7267 58.0627 38.7652C57.8254 37.8754 56.3676 31.1815 63.1182 22.2255C63.8062 29.5027 66.1721 40.122 73.0879 52.5835C75.1707 56.273 75.7511 60.6235 74.7084 64.73C73.6657 68.8366 71.0802 72.3831 67.4895 74.6322C53.826 82.9702 38.8027 70.2657 34.8167 58.4394L34.8119 58.4433ZM89.176 105.069C76.7193 100.841 68.7695 92.398 63.8159 84.5048C68.2551 83.3775 72.3269 81.1204 75.6354 77.9532C79.1217 84.2651 84.166 89.5793 90.2878 93.3897C89.7458 97.194 89.348 101.583 89.1808 105.065L89.176 105.069ZM123.026 50.4742C139.433 50.4742 153.037 90.2042 148.299 127.316L143.561 164.509H102.493L97.7552 127.315C92.8073 88.5475 107.378 50.4704 123.031 50.4704L123.026 50.4742ZM146.255 236.94C100.592 236.94 97.7033 237.605 98.9506 235.511C101.761 230.946 105.295 226.869 109.415 223.439H136.645C140.768 226.863 144.3 230.941 147.103 235.508C147.186 235.656 147.228 235.822 147.226 235.99C147.225 236.159 147.178 236.324 147.092 236.469C147.006 236.614 146.884 236.734 146.737 236.817C146.59 236.9 146.423 236.942 146.255 236.94ZM145.976 215.752H100.084C97.7057 215.752 95.4253 214.807 93.744 213.126C92.0626 211.444 91.118 209.164 91.118 206.786C91.118 204.408 92.0626 202.128 93.744 200.446C95.4253 198.765 97.7057 197.821 100.084 197.821H145.977C148.355 197.821 150.635 198.765 152.317 200.446C153.998 202.128 154.943 204.408 154.943 206.786C154.943 209.164 153.998 211.444 152.317 213.126C150.635 214.807 148.355 215.752 145.977 215.752H145.976ZM152.318 187.507C151.488 188.343 150.5 189.006 149.411 189.457C148.322 189.908 147.155 190.138 145.976 190.133H100.084C98.9056 190.133 97.7391 189.901 96.6508 189.45C95.5624 188.999 94.5735 188.339 93.7406 187.506C92.9076 186.673 92.2468 185.684 91.796 184.595C91.3452 183.507 91.1132 182.341 91.1132 181.163C91.1132 179.985 91.3452 178.818 91.796 177.73C92.2468 176.642 92.9076 175.653 93.7406 174.82C94.5735 173.987 95.5624 173.326 96.6508 172.875C97.7391 172.424 98.9056 172.192 100.084 172.192C100.564 172.192 146.185 172.177 146.665 172.22C148.374 172.355 150.008 172.977 151.374 174.011C152.741 175.046 153.783 176.449 154.377 178.057C154.971 179.665 155.093 181.409 154.728 183.083C154.363 184.758 153.526 186.293 152.316 187.507H152.318ZM172.969 52.5758C179.887 40.1143 182.25 29.495 182.938 22.2178C189.689 31.1738 188.231 37.8677 187.995 38.7575C187.74 39.7178 187.867 40.7394 188.349 41.608C188.831 42.4767 189.631 43.125 190.581 43.4169C191.53 43.7088 192.556 43.6217 193.443 43.1739C194.33 42.7261 195.009 41.9522 195.337 41.0147L204.34 15.2616C215.757 39.5906 218.788 65.0218 194.433 76.0582C180.544 82.3648 164.929 67.0734 172.969 52.5758ZM155.768 93.3906C161.89 89.5793 166.934 84.2641 170.42 77.9512C173.733 81.1127 177.803 83.3689 182.24 84.5029C177.287 92.3941 169.337 100.839 156.879 105.067C156.705 101.43 156.296 97.072 155.768 93.3906Z" fill="#5F266D"/>
<path d="M134.634 102.702C134.703 103.507 134.761 104.322 134.808 105.147C134.864 106.126 135.292 107.047 136.005 107.72C136.718 108.394 137.661 108.77 138.642 108.77C138.716 108.77 138.79 108.77 138.865 108.765C139.369 108.736 139.863 108.608 140.317 108.388C140.772 108.169 141.179 107.862 141.515 107.485C141.851 107.108 142.109 106.669 142.275 106.192C142.441 105.715 142.512 105.211 142.483 104.707C142.431 103.81 142.367 102.925 142.291 102.052C142.196 101.042 141.707 100.111 140.929 99.4612C140.152 98.811 139.149 98.4944 138.139 98.5802C137.129 98.6659 136.193 99.1472 135.536 99.9192C134.88 100.691 134.554 101.691 134.631 102.702H134.634Z" fill="#5F266D"/>
<path d="M132.476 89.0068C132.589 89.499 132.798 89.964 133.091 90.3754C133.384 90.7868 133.755 91.1365 134.183 91.4045C134.611 91.6725 135.087 91.8536 135.585 91.9374C136.083 92.0212 136.593 92.0061 137.085 91.893C137.577 91.7799 138.042 91.5709 138.454 91.2781C138.865 90.9852 139.215 90.6142 139.483 90.1862C139.751 89.7582 139.932 89.2816 140.015 88.7836C140.099 88.2856 140.084 87.776 139.971 87.2839C138.461 80.3943 136.185 73.6951 133.187 67.3108C132.725 66.4018 131.921 65.7135 130.952 65.3973C129.983 65.081 128.928 65.1627 128.019 65.6243C127.11 66.086 126.422 66.8899 126.105 67.859C125.789 68.8282 125.871 69.8833 126.333 70.7923C129.039 76.6213 131.099 82.7293 132.476 89.0068Z" fill="#5F266D"/>
</svg>
