<svg width="202" height="202" viewBox="0 0 202 202" fill="none" xmlns="http://www.w3.org/2000/svg">
<path d="M167.778 196.776H21.2021C19.1094 196.776 17.1024 195.945 15.6226 194.465C14.1428 192.986 13.3115 190.979 13.3115 188.886V188.12C13.3013 179.116 15.3298 170.225 19.245 162.116C23.1601 154.007 28.8603 146.89 35.9181 141.297C36.8492 140.556 37.7987 139.846 38.7667 139.167C45.5114 134.42 53.1697 131.129 61.2549 129.501C65.1494 128.722 69.1114 128.331 73.083 128.333H73.0988C77.0703 128.331 81.0324 128.722 84.9268 129.501C93.0121 131.129 100.67 134.42 107.415 139.167C108.386 139.846 109.34 140.556 110.264 141.297C119.911 148.956 126.955 159.41 130.432 171.227H156.337V185.335C156.337 188.369 157.542 191.28 159.688 193.425C161.834 195.571 164.744 196.776 167.778 196.776V196.776Z" fill="#F9D335"/>
<path d="M123.859 27.9802V50.3027C123.859 58.1618 119.077 64.5374 111.21 64.5374H108.409V58.3433C108.408 56.3303 107.608 54.4001 106.185 52.9767C104.762 51.5533 102.831 50.7533 100.818 50.7525H77.3281C76.167 50.7529 75.0212 50.4871 73.9789 49.9755C72.9366 49.4639 72.0254 48.7202 71.3154 47.8014L69.3033 45.1817C68.5938 44.262 67.6829 43.517 66.6406 43.0041C65.5983 42.4912 64.4523 42.2239 63.2907 42.2227H45.3632C43.3502 42.2236 41.42 43.0236 39.9966 44.4469C38.5733 45.8703 37.7732 47.8006 37.7724 49.8135V64.5374H37.5278C28.8718 64.5374 22.3226 59.9214 22.3226 51.2654V31.6493C22.3226 29.8311 22.8037 28.0452 23.717 26.473C24.6303 24.9008 25.9433 23.5983 27.5228 22.6976C29.1022 21.7969 30.8918 21.3301 32.71 21.3446C34.5282 21.3591 36.3101 21.8544 37.875 22.7802V20.3973C37.8752 16.373 39.4739 12.5137 42.3195 9.6681C45.1651 6.82253 49.0244 5.22381 53.0487 5.2236H101.095C107.131 5.22277 112.921 7.6198 117.19 11.8874C121.459 16.1551 123.858 21.9438 123.859 27.9802V27.9802Z" fill="#F9D335"/>
<path d="M100.818 50.7525H77.3281C76.167 50.7529 75.0213 50.4871 73.9789 49.9755C72.9366 49.4639 72.0254 48.7201 71.3155 47.8014L69.3033 45.1817C68.5938 44.2619 67.6829 43.517 66.6406 43.0041C65.5983 42.4911 64.4523 42.2238 63.2907 42.2227H45.3632C43.3502 42.2236 41.42 43.0236 39.9966 44.4469C38.5732 45.8703 37.7732 47.8006 37.7724 49.8135V78.5748C37.7931 85.861 40.0585 92.9639 44.2604 98.9165C48.4622 104.869 54.3963 109.382 61.2549 111.842C68.9085 114.577 77.2732 114.577 84.9268 111.842C91.7854 109.382 97.7195 104.869 101.921 98.9165C106.123 92.9639 108.389 85.861 108.409 78.5748V58.3433C108.408 56.3303 107.608 54.4001 106.185 52.9767C104.762 51.5533 102.831 50.7533 100.818 50.7525V50.7525Z" fill="#FFBB98"/>
<path d="M73.0909 113.893C69.0569 113.895 65.0529 113.201 61.2549 111.842V129.501C65.1494 128.722 69.1114 128.331 73.083 128.333H73.0988C77.0704 128.331 81.0324 128.722 84.9268 129.501V111.842C81.1289 113.201 77.1248 113.895 73.0909 113.893Z" fill="#FFBB98"/>
<path d="M114.327 196.776H31.8544L42.3174 162.583H103.864L114.327 196.776Z" fill="#44C7B6"/>
<path d="M177.85 77.3905H157.707C156.965 77.3903 156.239 77.1812 155.611 76.7873C154.983 76.3933 154.479 75.8303 154.156 75.1629L147.263 60.9085C147.003 60.3731 146.868 59.7858 146.868 59.1907V26.2592C146.868 25.2129 147.284 24.2093 148.024 23.4695C148.764 22.7296 149.767 22.3139 150.814 22.3139H184.743C185.79 22.3139 186.793 22.7296 187.533 23.4695C188.273 24.2093 188.689 25.2129 188.689 26.2592V59.1907C188.688 59.7858 188.554 60.3731 188.294 60.9085L181.405 75.1629C181.082 75.8311 180.577 76.3945 179.948 76.7885C179.319 77.1825 178.592 77.3912 177.85 77.3905Z" fill="#87828E"/>
<path d="M179.22 171.227V185.335C179.22 188.369 178.014 191.28 175.869 193.425C173.723 195.571 170.813 196.776 167.778 196.776C164.744 196.776 161.834 195.571 159.688 193.425C157.542 191.28 156.337 188.369 156.337 185.335V171.227H179.22Z" fill="#44C7B6"/>
<path d="M172 125.666C170.164 127.503 168.858 129.801 168.221 132.318C167.583 134.835 167.636 137.478 168.376 139.967C169.115 142.456 170.513 144.699 172.422 146.46C174.331 148.22 176.679 149.433 179.22 149.969V171.227H156.337V113.846C156.337 112.8 156.753 111.796 157.493 111.056C158.232 110.316 159.236 109.901 160.282 109.901H175.274C176.321 109.901 177.324 110.316 178.064 111.056C178.804 111.796 179.22 112.8 179.22 113.846V121.752C176.485 122.331 173.977 123.691 172 125.666V125.666Z" fill="#87828E"/>
<path d="M184.349 121.445H182.195C181.195 121.443 180.198 121.546 179.22 121.752C175.984 122.435 173.081 124.21 170.998 126.779C168.915 129.347 167.779 132.554 167.779 135.861C167.779 139.168 168.915 142.374 170.998 144.943C173.081 147.512 175.984 149.286 179.22 149.969C180.198 150.176 181.195 150.279 182.195 150.277H184.349C185.395 150.277 186.399 149.861 187.138 149.121C187.878 148.382 188.294 147.378 188.294 146.332V125.39C188.294 124.344 187.878 123.34 187.138 122.6C186.399 121.86 185.395 121.445 184.349 121.445Z" fill="#FFBB98"/>
<path d="M79.0088 113.396C77.0534 113.726 75.0739 113.892 73.0908 113.893C69.0569 113.895 65.0528 113.201 61.2549 111.842C54.3963 109.382 48.4622 104.869 44.2604 98.9165C40.0585 92.9639 37.7931 85.861 37.7724 78.5748V49.8135C37.7732 47.8006 38.5732 45.8703 39.9966 44.4469C41.42 43.0236 43.3502 42.2236 45.3632 42.2227H57.1991C55.1862 42.2236 53.2559 43.0236 51.8326 44.4469C50.4092 45.8703 49.6092 47.8006 49.6083 49.8135V78.5748C49.6243 86.9117 52.582 94.9755 57.9603 101.345C63.3387 107.716 70.7926 111.983 79.0088 113.396Z" fill="#FFCAA6"/>
<path d="M108.409 58.3433V78.5749C108.389 85.8611 106.123 92.9639 101.921 98.9165C97.7195 104.869 91.7854 109.382 84.9268 111.842C81.1289 113.201 77.1248 113.895 73.0909 113.893C71.1078 113.892 69.1283 113.726 67.1729 113.396C75.3892 111.983 82.8431 107.716 88.2214 101.346C93.5998 94.9755 96.5574 86.9117 96.5734 78.5749V58.3433C96.5725 56.3303 95.7725 54.4001 94.3492 52.9767C92.9258 51.5533 90.9955 50.7533 88.9826 50.7525H100.819C102.831 50.7533 104.762 51.5533 106.185 52.9767C107.608 54.4001 108.408 56.3303 108.409 58.3433V58.3433Z" fill="#FFAA80"/>
<path d="M79.0088 128.625C77.0225 128.816 75.0473 129.108 73.0909 129.501C65.0056 131.129 57.3473 134.42 50.6026 139.167C49.632 139.846 48.6825 140.556 47.7541 141.297C40.6963 146.89 34.9961 154.007 31.0809 162.116C27.1657 170.225 25.1372 179.116 25.1474 188.12V188.886C25.1474 190.979 25.9788 192.986 27.4585 194.465C28.9383 195.945 30.9453 196.776 33.0381 196.776H21.2021C19.1094 196.776 17.1024 195.945 15.6226 194.465C14.1428 192.986 13.3115 190.979 13.3115 188.886V188.12C13.3013 179.116 15.3298 170.225 19.245 162.116C23.1601 154.007 28.8603 146.89 35.9181 141.297C36.8492 140.556 37.7987 139.846 38.7667 139.167C45.5114 134.42 53.1697 131.129 61.2549 129.501C65.1494 128.722 69.1114 128.331 73.083 128.333H73.0988C75.0725 128.331 77.045 128.428 79.0088 128.625Z" fill="#F9E27D"/>
<path d="M115.361 145.842C122.431 152.908 127.613 161.637 130.432 171.227H118.596C115.119 159.41 108.075 148.956 98.4277 141.297C97.5045 140.556 96.5497 139.846 95.5792 139.167C88.8345 134.42 81.1762 131.129 73.0909 129.501C71.1345 129.108 69.1592 128.816 67.1729 128.625C69.1367 128.428 71.1093 128.331 73.083 128.333H73.0988C77.0703 128.331 81.0324 128.722 84.9268 129.501C93.0121 131.129 100.67 134.42 107.415 139.167C108.386 139.846 109.34 140.556 110.264 141.297C112.049 142.713 113.751 144.231 115.361 145.842Z" fill="#F2C300"/>
<path d="M167.778 196.776H155.942C152.908 196.776 149.998 195.571 147.852 193.425C145.706 191.28 144.501 188.369 144.501 185.335V171.227H156.337V185.335C156.337 188.369 157.542 191.28 159.688 193.425C161.834 195.571 164.744 196.776 167.778 196.776V196.776Z" fill="#F2C300"/>
<path d="M54.1533 162.586L43.6904 196.776H31.8544L42.3174 162.586H54.1533Z" fill="#4BDBC3"/>
<path d="M114.327 196.776H102.491L92.0284 162.586H103.864L114.327 196.776Z" fill="#3BB2A0"/>
<path d="M64.8846 5.2236C60.8604 5.22381 57.001 6.82253 54.1554 9.6681C51.3099 12.5137 49.7111 16.373 49.7109 20.3973V22.7802C48.1461 21.8544 46.3641 21.3591 44.546 21.3446C42.7278 21.3301 40.9381 21.7969 39.3587 22.6976C37.7793 23.5983 36.4662 24.9008 35.5529 26.473C34.6396 28.0452 34.1585 29.8311 34.1585 31.6493V51.2654C34.0946 52.9664 34.3826 54.6622 35.0045 56.2467C35.6263 57.8312 36.5686 59.2703 37.7724 60.4737V64.5374H37.5278C28.8718 64.5374 22.3226 59.9214 22.3226 51.2654V31.6493C22.3226 29.8311 22.8037 28.0452 23.717 26.473C24.6303 24.9008 25.9433 23.5983 27.5228 22.6976C29.1022 21.7969 30.8919 21.3301 32.71 21.3446C34.5282 21.3591 36.3101 21.8544 37.875 22.7802V20.3973C37.8752 16.373 39.4739 12.5137 42.3195 9.6681C45.1651 6.82253 49.0244 5.22381 53.0487 5.2236H64.8846Z" fill="#F9E27D"/>
<path d="M123.859 27.9802V50.3027C123.859 58.1618 119.077 64.5374 111.21 64.5374H108.409V60.6316C110.847 57.7522 112.134 54.0736 112.023 50.3027V27.9802C112.022 21.9438 109.623 16.1551 105.354 11.8874C101.085 7.6198 95.2951 5.22277 89.2587 5.2236H101.095C107.131 5.22277 112.921 7.6198 117.19 11.8874C121.459 16.1551 123.858 21.9438 123.859 27.9802V27.9802Z" fill="#F2C300"/>
<path d="M169.546 77.3913H157.71C156.968 77.3906 156.241 77.1817 155.612 76.7883C154.983 76.3949 154.477 75.8329 154.151 75.1661L147.263 60.9078C147.002 60.3717 146.867 59.7835 146.868 59.1876V26.26C146.868 25.2136 147.284 24.2101 148.024 23.4703C148.764 22.7304 149.767 22.3147 150.814 22.3147H162.649C161.603 22.3147 160.6 22.7304 159.86 23.4703C159.12 24.2101 158.704 25.2136 158.704 26.26V59.1876C158.703 59.7835 158.838 60.3717 159.099 60.9078L165.987 75.1661C166.313 75.8329 166.819 76.3949 167.448 76.7883C168.077 77.1817 168.804 77.3906 169.546 77.3913V77.3913Z" fill="#87828E"/>
<path d="M173.696 195.127C171.961 196.176 169.978 196.745 167.95 196.775C165.923 196.806 163.923 196.297 162.157 195.301C160.391 194.304 158.921 192.856 157.898 191.105C156.876 189.354 156.337 187.363 156.337 185.335V171.227H168.173V185.335C168.171 187.305 168.679 189.242 169.647 190.957C170.615 192.673 172.01 194.11 173.696 195.127V195.127Z" fill="#4BDBC3"/>
<path d="M172.118 109.901C171.072 109.901 170.068 110.316 169.328 111.056C168.589 111.796 168.173 112.8 168.173 113.846V132.531C167.647 134.725 167.647 137.012 168.173 139.206V171.227H156.337V113.846C156.337 112.8 156.753 111.796 157.493 111.056C158.232 110.316 159.236 109.901 160.282 109.901H172.118Z" fill="#A4A4A5"/>
<path d="M169.546 77.3913H157.71C156.968 77.3906 156.241 77.1817 155.612 76.7883C154.983 76.3949 154.477 75.8329 154.151 75.1661L147.263 60.9078C147.002 60.3717 146.867 59.7835 146.868 59.1876V26.26C146.868 25.2136 147.284 24.2101 148.024 23.4703C148.764 22.7304 149.767 22.3147 150.814 22.3147H162.649C161.603 22.3147 160.6 22.7304 159.86 23.4703C159.12 24.2101 158.704 25.2136 158.704 26.26V59.1876C158.703 59.7835 158.838 60.3717 159.099 60.9078L165.987 75.1661C166.313 75.8329 166.819 76.3949 167.448 76.7883C168.077 77.1817 168.804 77.3906 169.546 77.3913V77.3913Z" fill="#A4A4A5"/>
<path d="M177.85 80.5475C179.184 80.5433 180.49 80.1656 181.621 79.4571C182.751 78.7487 183.661 77.7378 184.246 76.5391L191.139 62.2839C191.604 61.3197 191.847 60.2631 191.849 59.1923V26.2592C191.846 24.3765 191.097 22.5715 189.766 21.2402C188.435 19.9089 186.63 19.16 184.747 19.1577H150.817C148.935 19.1597 147.13 19.9086 145.798 21.24C144.467 22.5713 143.718 24.3764 143.716 26.2592V59.1907C143.718 60.2615 143.96 61.3181 144.426 62.2823L151.314 76.5391C151.899 77.7375 152.807 78.7482 153.937 79.4569C155.066 80.1656 156.372 80.5439 157.705 80.5491H164.621V106.746H160.281C158.398 106.748 156.593 107.497 155.261 108.828C153.93 110.16 153.181 111.965 153.179 113.848V168.07H132.742C129.361 158.015 123.495 148.976 115.687 141.793C107.879 134.611 98.3837 129.517 88.0814 126.985V113.986C95.0301 111.027 100.958 106.096 105.133 99.8015C109.307 93.5074 111.543 86.1273 111.566 78.5749V67.6755C120.537 67.4869 127.015 60.2473 127.015 50.3027V27.9802C127.006 21.1091 124.272 14.522 119.413 9.66417C114.554 4.8063 107.966 2.07424 101.095 2.06735H53.0487C48.5433 2.07296 44.1973 3.73526 40.8382 6.73773C37.4791 9.7402 35.3415 13.8731 34.8324 18.3497C32.9036 18.0349 30.9294 18.1429 29.0465 18.6662C27.1635 19.1895 25.4167 20.1155 23.9269 21.3803C22.437 22.6451 21.2397 24.2185 20.4177 25.9915C19.5958 27.7646 19.1688 29.695 19.1663 31.6493V51.2654C19.1663 60.1921 25.2673 66.4391 34.6161 67.5122V78.5749C34.6381 86.1271 36.8745 93.5071 41.0483 99.8012C45.2222 106.095 51.1502 111.027 58.0986 113.986V126.985C31.5278 133.472 10.1552 157.244 10.1552 188.886C10.1583 191.815 11.3232 194.623 13.3942 196.694C15.4652 198.765 18.2732 199.93 21.2021 199.933H167.778C171.649 199.928 175.359 198.389 178.096 195.652C180.832 192.916 182.372 189.205 182.376 185.335V153.433H184.349C186.231 153.431 188.037 152.682 189.368 151.351C190.699 150.02 191.448 148.214 191.45 146.332V125.39C191.448 123.507 190.699 121.702 189.368 120.371C188.036 119.04 186.231 118.291 184.349 118.288H182.376V113.846C182.374 111.963 181.625 110.158 180.293 108.827C178.962 107.496 177.157 106.747 175.274 106.744H170.935V80.5475H177.85ZM34.6161 49.8135V61.1476C30.8176 60.5369 25.4788 58.4072 25.4788 51.2654V31.6493C25.4786 30.3879 25.8121 29.149 26.4455 28.0582C27.0788 26.9674 27.9896 26.0636 29.0852 25.4385C30.1808 24.8134 31.4223 24.4894 32.6836 24.4993C33.9449 24.5091 35.1812 24.8525 36.2669 25.4946C36.746 25.7783 37.2917 25.9302 37.8486 25.9349C38.4054 25.9396 38.9536 25.7968 39.4374 25.5212C39.9212 25.2455 40.3235 24.8467 40.6035 24.3654C40.8834 23.884 41.031 23.3371 41.0312 22.7802V20.3973C41.0348 17.2111 42.302 14.1565 44.555 11.9036C46.8079 9.65066 49.8625 8.3834 53.0487 8.37985H101.095C106.292 8.38465 111.276 10.451 114.952 14.1255C118.628 17.8 120.696 22.7826 120.703 27.9802V50.3027C120.703 55.7165 117.873 61.1784 111.566 61.3757V58.3433C111.562 55.494 110.429 52.7624 108.414 50.7477C106.399 48.7329 103.668 47.5996 100.818 47.5963H77.3281C74.6453 47.5963 73.6519 45.6623 71.8047 43.2564C70.7971 41.9571 69.5067 40.9044 68.0315 40.1784C66.5562 39.4524 64.9349 39.0721 63.2907 39.0665H45.3632C42.5139 39.0698 39.7823 40.2032 37.7676 42.2179C35.7528 44.2327 34.6195 46.9643 34.6161 49.8135V49.8135ZM40.9286 78.5749V49.8135C40.9299 48.6378 41.3975 47.5106 42.2289 46.6792C43.0602 45.8479 44.1875 45.3802 45.3632 45.379H63.2907C63.9685 45.3818 64.6368 45.5388 65.2449 45.8382C65.853 46.1376 66.3849 46.5715 66.8004 47.107C68.867 49.7993 70.1879 52.0158 73.7118 53.2791C74.872 53.6958 76.0954 53.9094 77.3281 53.9103H100.818C101.994 53.9116 103.121 54.3792 103.953 55.2106C104.784 56.0419 105.252 57.1691 105.253 58.3449V78.5749C105.253 87.1048 101.865 95.2854 95.8329 101.317C89.8014 107.349 81.6208 110.737 73.0908 110.737C64.5609 110.737 56.3803 107.349 50.3487 101.317C44.3172 95.2854 40.9287 87.1048 40.9286 78.5749V78.5749ZM81.7705 116.055V125.769C76.0104 124.988 70.1713 124.988 64.4111 125.769V116.055C70.1233 117.367 76.0583 117.367 81.7705 116.056V116.055ZM45.4737 138.668C53.9153 133.955 63.4227 131.481 73.0908 131.481C82.759 131.481 92.2663 133.955 100.708 138.668V159.425H45.4737V138.668ZM21.2021 193.62C19.9469 193.619 18.7435 193.119 17.856 192.232C16.9684 191.344 16.4692 190.141 16.4677 188.886C16.4677 169.491 25.134 153.306 39.1612 142.781V162.113L29.5196 193.62H21.2021ZM36.1209 193.62L44.4999 166.24C44.6587 166.09 44.8013 165.923 44.9253 165.743H101.256C101.38 165.923 101.523 166.089 101.682 166.24L110.061 193.62H36.1209ZM116.662 193.62L107.021 162.111V142.779C116.799 150.107 123.948 160.398 127.404 172.118C127.596 172.772 127.995 173.346 128.541 173.754C129.087 174.162 129.75 174.383 130.432 174.383H153.181V185.335C153.192 188.293 154.093 191.18 155.766 193.62H116.662ZM176.064 185.335C176.064 187.532 175.191 189.64 173.637 191.194C172.083 192.747 169.976 193.62 167.778 193.62C165.581 193.62 163.474 192.747 161.92 191.194C160.366 189.64 159.493 187.532 159.493 185.335V174.383H176.064V185.335ZM182.195 124.601C184.096 124.601 185.138 124.394 185.138 125.39V146.332C185.138 146.541 185.055 146.742 184.907 146.89C184.759 147.038 184.558 147.121 184.349 147.121H182.195C167.077 147.121 167.649 124.601 182.195 124.601ZM175.274 113.057C175.484 113.057 175.684 113.14 175.832 113.288C175.98 113.436 176.064 113.637 176.064 113.846V119.385C161.03 124.982 160.737 146.601 176.064 152.328V168.07H159.493V113.846C159.493 113.637 159.576 113.436 159.724 113.288C159.872 113.14 160.073 113.057 160.282 113.057H175.274ZM157.707 74.235C157.559 74.2344 157.414 74.1923 157.288 74.1135C157.162 74.0347 157.062 73.9224 156.997 73.7892L150.103 59.5332C150.051 59.4264 150.024 59.3094 150.024 59.1907V26.2592C150.024 26.0499 150.107 25.8492 150.255 25.7013C150.403 25.5533 150.603 25.4702 150.813 25.4702H184.742C184.952 25.4702 185.152 25.5533 185.3 25.7013C185.448 25.8492 185.531 26.0499 185.531 26.2592V59.1907C185.531 59.3099 185.504 59.4274 185.453 59.5348L178.565 73.7892C178.5 73.9223 178.399 74.0345 178.273 74.1133C178.148 74.1921 178.003 74.2342 177.855 74.235H157.707Z" fill="#5F266D"/>
<path d="M56.7849 73.5618C59.3284 72.9614 60.9036 70.4127 60.3031 67.8692C59.7027 65.3257 57.1541 63.7505 54.6106 64.3509C52.067 64.9513 50.4919 67.5 51.0923 70.0435C51.6927 72.587 54.2413 74.1622 56.7849 73.5618Z" fill="#5F266D"/>
<path d="M91.5706 73.5607C94.1141 72.9603 95.6892 70.4116 95.0888 67.8681C94.4883 65.3246 91.9396 63.7494 89.3961 64.3499C86.8526 64.9504 85.2775 67.4991 85.8779 70.0426C86.4784 72.5861 89.0271 74.1612 91.5706 73.5607Z" fill="#5F266D"/>
<path d="M73.0908 91.8098C75.637 91.8067 78.078 90.7937 79.8782 88.9931C81.6785 87.1926 82.691 84.7515 82.6937 82.2053C82.6937 81.3682 82.3612 80.5654 81.7693 79.9735C81.1774 79.3816 80.3746 79.0491 79.5375 79.0491C78.7004 79.0491 77.8976 79.3816 77.3057 79.9735C76.7138 80.5654 76.3812 81.3682 76.3812 82.2053C76.3812 83.0784 76.0344 83.9157 75.417 84.5331C74.7997 85.1505 73.9624 85.4973 73.0893 85.4973C72.2162 85.4973 71.3789 85.1505 70.7615 84.5331C70.1441 83.9157 69.7973 83.0784 69.7973 82.2053C69.7973 81.3682 69.4648 80.5654 68.8729 79.9735C68.2809 79.3816 67.4781 79.0491 66.6411 79.0491C65.804 79.0491 65.0012 79.3816 64.4092 79.9735C63.8173 80.5654 63.4848 81.3682 63.4848 82.2053C63.4875 84.752 64.5005 87.1936 66.3014 88.9943C68.1024 90.7949 70.5441 91.8075 73.0908 91.8098V91.8098Z" fill="#5F266D"/>
<path d="M110.096 37.2556C109.259 37.2556 108.456 37.5881 107.865 38.18C107.273 38.7719 106.94 39.5747 106.94 40.4118V40.673C106.94 41.5101 107.273 42.3129 107.865 42.9048C108.456 43.4967 109.259 43.8293 110.096 43.8293C110.933 43.8293 111.736 43.4967 112.328 42.9048C112.92 42.3129 113.253 41.5101 113.253 40.673V40.4118C113.253 39.5747 112.92 38.7719 112.328 38.18C111.736 37.5881 110.933 37.2556 110.096 37.2556Z" fill="#5F266D"/>
<path d="M99.7217 21.9359H103.525C104.43 21.937 105.297 22.2968 105.936 22.9364C106.576 23.5761 106.936 24.4433 106.937 25.3479V28.583C106.937 29.4201 107.269 30.2229 107.861 30.8148C108.453 31.4067 109.256 31.7393 110.093 31.7393C110.93 31.7393 111.733 31.4067 112.325 30.8148C112.917 30.2229 113.249 29.4201 113.249 28.583V25.3479C113.246 22.7697 112.221 20.2979 110.398 18.4749C108.575 16.6518 106.103 15.6264 103.525 15.6234H99.7217C98.8846 15.6234 98.0818 15.956 97.4899 16.5479C96.898 17.1398 96.5655 17.9426 96.5655 18.7797C96.5655 19.6168 96.898 20.4196 97.4899 21.0115C98.0818 21.6034 98.8846 21.9359 99.7217 21.9359V21.9359Z" fill="#5F266D"/>
<path d="M160.282 32.0983C159.445 32.0983 158.642 32.4308 158.05 33.0227C157.459 33.6146 157.126 34.4174 157.126 35.2545V59.7155C157.126 60.5525 157.459 61.3553 158.05 61.9473C158.642 62.5392 159.445 62.8717 160.282 62.8717C161.119 62.8717 161.922 62.5392 162.514 61.9473C163.106 61.3553 163.439 60.5525 163.439 59.7155V35.2545C163.439 34.4174 163.106 33.6146 162.514 33.0227C161.922 32.4308 161.119 32.0983 160.282 32.0983Z" fill="#5F266D"/>
<path d="M178.431 35.2545C178.431 34.4174 178.098 33.6146 177.506 33.0227C176.914 32.4308 176.112 32.0983 175.274 32.0983C174.437 32.0983 173.635 32.4308 173.043 33.0227C172.451 33.6146 172.118 34.4174 172.118 35.2545V59.7155C172.118 60.5525 172.451 61.3553 173.043 61.9473C173.635 62.5392 174.437 62.8717 175.274 62.8717C176.112 62.8717 176.914 62.5392 177.506 61.9473C178.098 61.3553 178.431 60.5525 178.431 59.7155V35.2545Z" fill="#5F266D"/>
</svg>
