<svg width="224" height="217" viewBox="0 0 224 217" fill="none" xmlns="http://www.w3.org/2000/svg">
<path d="M112 177.16C151.143 177.16 182.875 146.42 182.875 108.5C182.875 70.58 151.143 39.8398 112 39.8398C72.8568 39.8398 41.125 70.58 41.125 108.5C41.125 146.42 72.8568 177.16 112 177.16Z" fill="#5FCDFF"/>
<path d="M118.562 176.863C116.404 177.058 114.217 177.157 112 177.16C93.2028 177.16 75.1754 169.926 61.8838 157.05C48.5922 144.174 41.125 126.71 41.125 108.5C41.125 90.2902 48.5922 72.8262 61.8838 59.9499C75.1754 47.0737 93.2028 39.8398 112 39.8398C114.217 39.8398 116.404 39.9387 118.562 40.1365C100.981 41.725 84.6447 49.6141 72.7526 62.2591C60.8605 74.904 54.2691 91.394 54.2691 108.5C54.2691 125.606 60.8605 142.096 72.7526 154.741C84.6447 167.386 100.981 175.275 118.562 176.863Z" fill="#73D7F9"/>
<path d="M182.875 108.5C182.876 117.517 181.043 126.445 177.481 134.776C173.92 143.106 168.699 150.676 162.118 157.052C155.536 163.427 147.723 168.485 139.124 171.935C130.524 175.385 121.308 177.161 112 177.16C109.783 177.16 107.596 177.061 105.438 176.863C123.019 175.275 139.355 167.386 151.247 154.741C163.14 142.096 169.731 125.606 169.731 108.5C169.731 91.394 163.14 74.904 151.247 62.2591C139.355 49.6141 123.019 41.725 105.438 40.1365C107.596 39.9416 109.783 39.8427 112 39.8398C121.308 39.8392 130.524 41.6147 139.124 45.0649C147.723 48.5152 155.536 53.5726 162.118 59.9485C168.699 66.3243 173.92 73.8936 177.481 82.2241C181.043 90.5546 182.876 99.4832 182.875 108.5Z" fill="#30B6FF"/>
<path d="M197.105 38.7472C204.341 38.7472 210.207 33.0644 210.207 26.0544C210.207 19.0444 204.341 13.3616 197.105 13.3616C189.869 13.3616 184.003 19.0444 184.003 26.0544C184.003 33.0644 189.869 38.7472 197.105 38.7472Z" fill="#5FCDFF"/>
<path d="M26.8949 203.638C34.1311 203.638 39.9971 197.956 39.9971 190.946C39.9971 183.936 34.1311 178.253 26.8949 178.253C19.6587 178.253 13.7926 183.936 13.7926 190.946C13.7926 197.956 19.6587 203.638 26.8949 203.638Z" fill="#5FCDFF"/>
<path d="M26.8949 38.7472C34.1311 38.7472 39.9971 33.0644 39.9971 26.0544C39.9971 19.0444 34.1311 13.3616 26.8949 13.3616C19.6587 13.3616 13.7926 19.0444 13.7926 26.0544C13.7926 33.0644 19.6587 38.7472 26.8949 38.7472Z" fill="#5FCDFF"/>
<path d="M197.105 203.638C204.341 203.638 210.207 197.956 210.207 190.946C210.207 183.936 204.341 178.253 197.105 178.253C189.869 178.253 184.003 183.936 184.003 190.946C184.003 197.956 189.869 203.638 197.105 203.638Z" fill="#5FCDFF"/>
<path d="M160.782 120.685H63.2231C60.8069 120.685 58.8481 122.583 58.8481 124.923V134.671C58.8481 137.012 60.8069 138.91 63.2231 138.91H160.782C163.198 138.91 165.157 137.012 165.157 134.671V124.923C165.157 122.583 163.198 120.685 160.782 120.685Z" fill="#796E84"/>
<path d="M112 80.2095C117.439 80.2095 122.824 81.2472 127.849 83.2635C132.873 85.2797 137.439 88.2349 141.285 91.9605C145.13 95.686 148.181 100.109 150.262 104.976C152.343 109.844 153.415 115.061 153.415 120.33V120.685H70.588V120.33C70.588 109.69 74.951 99.4853 82.7171 91.9614C90.4833 84.4374 101.017 80.2101 112 80.2095Z" fill="#87828E"/>
<path d="M153.421 120.329V120.685H140.296V120.329C140.298 110.79 136.79 101.563 130.403 94.3034C124.016 87.0438 115.167 82.2272 105.445 80.7181C107.611 80.3766 109.803 80.2066 111.998 80.2095H112.007C122.991 80.2095 133.524 84.4363 141.291 91.9602C149.058 99.4841 153.421 109.689 153.421 120.329Z" fill="#796E84"/>
<path d="M76.3508 138.91H63.2258C62.0654 138.91 60.9526 138.463 60.1322 137.668C59.3117 136.873 58.8508 135.795 58.8508 134.671V124.923C58.8508 123.799 59.3117 122.721 60.1322 121.926C60.9526 121.132 62.0654 120.685 63.2258 120.685H76.3508C75.1904 120.685 74.0776 121.132 73.2572 121.926C72.4367 122.721 71.9758 123.799 71.9758 124.923V134.671C71.9758 135.795 72.4367 136.873 73.2572 137.668C74.0776 138.463 75.1904 138.91 76.3508 138.91Z" fill="#87828E"/>
<path d="M118.569 80.7181C108.846 82.2267 99.9958 87.0429 93.607 94.3024C87.2183 101.562 83.7092 110.789 83.7095 120.329V120.685H70.5845V120.329C70.5845 115.06 71.6558 109.843 73.7371 104.976C75.8185 100.108 78.8691 95.6851 82.7149 91.9596C86.5607 88.2342 91.1264 85.279 96.1511 83.2629C101.176 81.2468 106.561 80.2093 112 80.2095H112.009C114.206 80.2067 116.4 80.3767 118.569 80.7181Z" fill="#A4A4A5"/>
<path d="M165.154 124.923V134.671C165.154 135.795 164.694 136.873 163.873 137.668C163.053 138.463 161.94 138.91 160.779 138.91H147.654C148.815 138.91 149.928 138.463 150.748 137.668C151.569 136.873 152.029 135.795 152.029 134.671V124.923C152.029 123.799 151.569 122.721 150.748 121.926C149.928 121.132 148.815 120.685 147.654 120.685H160.779C161.94 120.685 163.053 121.132 163.873 121.926C164.694 122.721 165.154 123.799 165.154 124.923Z" fill="#796E84"/>
<path d="M197.106 174.863C193.915 174.863 190.793 175.759 188.117 177.443L166.982 156.969C179.459 143.72 186.375 126.434 186.375 108.5C186.375 90.5664 179.459 73.2799 166.982 60.031L188.117 39.5567C191.57 41.7177 195.726 42.5648 199.785 41.9348C203.844 41.3048 207.519 39.2424 210.102 36.1446C212.686 33.0467 213.994 29.1326 213.777 25.1559C213.559 21.1791 211.831 17.421 208.924 14.6051C206.017 11.7891 202.138 10.1146 198.033 9.90379C193.928 9.69301 189.887 10.9609 186.69 13.4634C183.492 15.9659 181.363 19.526 180.712 23.4581C180.062 27.3903 180.937 31.4165 183.167 34.7615L162.033 55.2358C148.356 43.1495 130.512 36.4492 112 36.4492C93.4879 36.4492 75.6438 43.1495 61.9675 55.2358L40.8328 34.7615C43.0628 31.4172 43.9368 27.3919 43.2865 23.4606C42.6363 19.5293 40.5076 15.9701 37.3106 13.4683C34.1135 10.9664 30.074 9.69886 25.9699 9.90964C21.8658 10.1204 17.9873 11.7946 15.0812 14.6099C12.1751 17.4252 10.4469 21.1825 10.2293 25.1583C10.0117 29.1342 11.3202 33.0474 13.9027 36.1446C16.4853 39.2418 20.1593 41.3039 24.2174 41.9338C28.2755 42.5638 32.4307 41.7171 35.8829 39.5567L57.0176 60.031C44.5414 73.2799 37.625 90.5664 37.625 108.5C37.625 126.434 44.5414 143.72 57.0176 156.969L35.8829 177.443C32.43 175.282 28.2739 174.435 24.2149 175.065C20.1559 175.695 16.4809 177.758 13.8977 180.855C11.3145 183.953 10.0057 187.867 10.2233 191.844C10.4409 195.821 12.1694 199.579 15.0762 202.395C17.983 205.211 21.8624 206.885 25.9674 207.096C30.0724 207.307 34.1128 206.039 37.3105 203.537C40.5083 201.034 42.6373 197.474 43.2876 193.542C43.9378 189.61 43.0635 185.583 40.8328 182.238L61.9675 161.764C75.6438 173.851 93.4879 180.551 112 180.551C130.512 180.551 148.356 173.851 162.033 161.764L183.167 182.238C181.172 185.242 180.267 188.803 180.594 192.36C180.921 195.918 182.462 199.268 184.974 201.883C187.485 204.497 190.824 206.227 194.463 206.798C198.102 207.37 201.834 206.751 205.069 205.039C208.305 203.327 210.859 200.62 212.33 197.345C213.801 194.07 214.103 190.414 213.19 186.954C212.277 183.494 210.2 180.427 207.288 178.238C204.375 176.048 200.793 174.861 197.106 174.864V174.863ZM197.106 16.7522C199.005 16.7524 200.862 17.2981 202.441 18.3203C204.019 19.3426 205.25 20.7954 205.977 22.4952C206.703 24.195 206.893 26.0653 206.523 27.8697C206.152 29.6741 205.238 31.3315 203.895 32.6323C202.552 33.9332 200.841 34.8191 198.978 35.1779C197.115 35.5368 195.185 35.3525 193.43 34.6484C191.676 33.9443 190.176 32.7521 189.121 31.2223C188.066 29.6926 187.503 27.8942 187.503 26.0544C187.506 23.588 188.518 21.2234 190.319 19.4794C192.119 17.7355 194.56 16.7547 197.106 16.7522ZM26.894 35.3557C24.9949 35.3556 23.1384 34.8098 21.5594 33.7876C19.9804 32.7653 18.7498 31.3124 18.0232 29.6126C17.2966 27.9128 17.1066 26.0424 17.4773 24.238C17.848 22.4336 18.7627 20.7761 20.1057 19.4753C21.4487 18.1745 23.1597 17.2887 25.0224 16.93C26.8851 16.5712 28.8158 16.7556 30.5703 17.4598C32.3248 18.164 33.8244 19.3564 34.8794 20.8863C35.9343 22.4161 36.4973 24.2146 36.4971 26.0544C36.4944 28.5207 35.4817 30.8853 33.6813 32.6291C31.8809 34.3729 29.4399 35.3535 26.894 35.3557ZM26.894 200.248C24.9949 200.248 23.1385 199.702 21.5595 198.68C19.9806 197.657 18.7499 196.205 18.0233 194.505C17.2967 192.805 17.1066 190.935 17.4772 189.13C17.8478 187.326 18.7624 185.668 20.1054 184.368C21.4483 183.067 23.1593 182.181 25.0219 181.822C26.8845 181.463 28.8152 181.647 30.5697 182.352C32.3242 183.056 33.8239 184.248 34.8789 185.778C35.934 187.307 36.4971 189.106 36.4971 190.946C36.4944 193.412 35.4817 195.777 33.6813 197.521C31.881 199.264 29.44 200.245 26.894 200.248ZM112 173.77C98.6745 173.77 85.6482 169.942 74.5685 162.77C63.4887 155.598 54.8531 145.404 49.7536 133.478C44.6542 121.551 43.3199 108.428 45.9196 95.7665C48.5193 83.1055 54.9361 71.4756 64.3587 62.3475C73.7813 53.2194 85.7863 47.003 98.8558 44.4846C111.925 41.9662 125.472 43.2587 137.783 48.1988C150.094 53.1389 160.617 61.5047 168.02 72.2382C175.424 82.9717 179.375 95.5909 179.375 108.5C179.355 125.805 172.25 142.395 159.619 154.631C146.988 166.867 129.863 173.75 112 173.77ZM197.106 200.248C195.207 200.248 193.35 199.702 191.771 198.68C190.192 197.658 188.961 196.206 188.234 194.506C187.507 192.806 187.317 190.936 187.687 189.131C188.058 187.327 188.972 185.669 190.315 184.368C191.658 183.067 193.369 182.181 195.232 181.822C197.094 181.463 199.025 181.647 200.78 182.351C202.534 183.055 204.034 184.248 205.089 185.777C206.144 187.307 206.707 189.106 206.707 190.946C206.704 193.412 205.692 195.776 203.892 197.52C202.092 199.264 199.652 200.245 197.106 200.248Z" fill="#5F266D"/>
<path d="M160.782 117.294H156.8C156.035 106.898 151.447 97.1113 143.869 89.7119C136.291 82.3125 126.226 77.7906 115.5 76.9672V66.2231H124.205C125.134 66.2231 126.024 65.8659 126.68 65.2301C127.337 64.5942 127.705 63.7318 127.705 62.8325C127.705 61.9333 127.337 61.0708 126.68 60.435C126.024 59.7991 125.134 59.4419 124.205 59.4419H99.7929C98.8646 59.4419 97.9744 59.7991 97.318 60.435C96.6616 61.0708 96.2929 61.9333 96.2929 62.8325C96.2929 63.7318 96.6616 64.5942 97.318 65.2301C97.9744 65.8659 98.8646 66.2231 99.7929 66.2231H108.5V76.9672C97.7755 77.7932 87.7121 82.3166 80.1362 89.7164C72.5603 97.1162 67.974 106.902 67.2096 117.298H63.2231C61.1352 117.3 59.1335 118.105 57.6572 119.535C56.1809 120.965 55.3504 122.904 55.3481 124.927V134.675C55.3504 136.697 56.1809 138.637 57.6572 140.067C59.1335 141.497 61.1352 142.301 63.2231 142.304H160.786C162.873 142.301 164.875 141.497 166.352 140.067C167.828 138.637 168.658 136.697 168.661 134.675V124.927C168.659 122.903 167.829 120.962 166.351 119.531C164.874 118.1 162.871 117.296 160.782 117.294ZM112 83.6001C121.51 83.6117 130.669 87.0801 137.666 93.3193C144.663 99.5585 148.988 108.114 149.787 117.294H74.2157C75.0139 108.115 79.3389 99.5592 86.3354 93.32C93.3319 87.0808 102.49 83.6122 112 83.6001ZM161.654 134.671C161.654 134.896 161.562 135.112 161.398 135.271C161.234 135.43 161.012 135.519 160.779 135.519H63.2231C62.991 135.519 62.7685 135.43 62.6044 135.271C62.4403 135.112 62.3481 134.896 62.3481 134.671V124.923C62.3481 124.699 62.4403 124.483 62.6044 124.324C62.7685 124.165 62.991 124.076 63.2231 124.076H160.786C161.018 124.076 161.24 124.165 161.404 124.324C161.568 124.483 161.661 124.699 161.661 124.923L161.654 134.671Z" fill="#5F266D"/>
<path d="M138.813 105.432C138.499 104.906 138.171 104.39 137.826 103.884C137.573 103.512 137.247 103.192 136.866 102.943C136.486 102.693 136.058 102.519 135.608 102.429C135.157 102.34 134.693 102.337 134.242 102.422C133.791 102.506 133.361 102.675 132.977 102.921C132.594 103.166 132.264 103.482 132.006 103.851C131.748 104.22 131.568 104.634 131.476 105.07C131.384 105.506 131.381 105.956 131.468 106.393C131.555 106.83 131.73 107.247 131.983 107.618C132.249 108.008 132.503 108.406 132.744 108.813C132.973 109.199 133.278 109.537 133.642 109.809C134.006 110.081 134.422 110.28 134.866 110.396C135.31 110.512 135.773 110.543 136.229 110.485C136.685 110.428 137.124 110.284 137.523 110.062C137.921 109.84 138.271 109.544 138.551 109.192C138.832 108.839 139.038 108.436 139.158 108.006C139.277 107.576 139.308 107.128 139.249 106.686C139.19 106.244 139.042 105.818 138.813 105.432Z" fill="#5F266D"/>
<path d="M127.112 94.2085C122.496 91.6996 117.293 90.3817 112 90.3813C111.072 90.3813 110.182 90.7386 109.525 91.3744C108.869 92.0103 108.5 92.8727 108.5 93.772C108.5 94.6712 108.869 95.5336 109.525 96.1695C110.182 96.8054 111.072 97.1626 112 97.1626C116.091 97.1623 120.113 98.1801 123.68 100.118C127.74 102.329 131.115 96.3895 127.112 94.2085Z" fill="#5F266D"/>
</svg>
